# xmcd CD database file
#
# Track frame offsets:
#	188
#	10548
#	25298
#	38155
#	54065
#	63090
#	75695
#	85315
#	98508
#	111158
#	129678
#	139925
#	153870
#
# Disc length: 2231 seconds
#
# Revision: 2
# Processed by: cddbd v1.5.1PL0 Copyright (c) Steve Scherf et al.
# Submitted via: CDex 1.51
#
DISCID=9308b50d
DTITLE=Drifters Caravan - Country Music Mit Drifters Caravan
DYEAR=1991
DGENRE=Country
TTITLE0=A White Sport Coat
TTITLE1=Wand'rin Star
TTITLE2=Save The Last Dance For Me
TTITLE3=She's Just An Old Love Turned Memory
TTITLE4=Boil Them Cabbage Down
TTITLE5=It Don't Hurt Anymore
TTITLE6=Great Speckle Bird
TTITLE7=Aber Country Music Hab' Ich Gern
TTITLE8=Jackson
TTITLE9=You Make Me Feel Like A Man
TTITLE10=San Antonio Rose
TTITLE11=He Thinks I Still Care
TTITLE12=Walking In The Sunshine
EXTD=YEAR: 1991
EXTT0=
EXTT1=
EXTT2=
EXTT3=
EXTT4=
EXTT5=
EXTT6=
EXTT7=
EXTT8=
EXTT9=
EXTT10=
EXTT11=
EXTT12=
PLAYORDER=
